<?xml version="1.0" standalone="no"?>
<!DOCTYPE svg PUBLIC "-//W3C//DTD SVG 20010904//EN"
 "http://www.w3.org/TR/2001/REC-SVG-20010904/DTD/svg10.dtd">
<svg version="1.0" xmlns="http://www.w3.org/2000/svg"
 width="512.000000pt" height="512.000000pt" viewBox="0 0 512.000000 512.000000"
 preserveAspectRatio="xMidYMid meet">

<g transform="translate(0.000000,512.000000) scale(0.100000,-0.100000)"
fill="#000000" stroke="none">
<path d="M723 5012 c-183 -282 -292 -554 -344 -852 -35 -202 -41 -420 -36
-1300 4 -793 5 -842 26 -971 101 -641 451 -1181 996 -1539 97 -63 329 -178
445 -220 113 -41 289 -85 430 -107 159 -24 481 -24 640 0 495 76 928 299 1270
654 328 339 527 741 602 1217 22 139 23 158 23 1096 0 872 -2 965 -18 1075
-34 222 -87 411 -168 599 -72 166 -251 462 -273 449 -42 -25 -183 -126 -241
-174 -144 -118 -391 -385 -515 -557 -34 -47 -50 -61 -65 -58 -11 2 -74 18
-140 34 -232 60 -283 65 -741 69 -504 5 -629 -6 -912 -84 l-93 -26 -17 24
c-118 169 -404 482 -547 598 -60 49 -204 153 -242 174 -7 4 -38 -34 -80 -101z
m293 -454 c50 -51 122 -129 159 -173 62 -72 294 -378 314 -413 7 -12 32 -6
152 36 298 103 435 122 919 122 484 0 621 -19 919 -122 120 -42 145 -48 152
-36 25 44 259 349 341 443 100 116 251 265 268 265 23 0 127 -250 169 -410 66
-252 66 -247 66 -1275 0 -1019 0 -1022 -62 -1260 -140 -542 -520 -1003 -1028
-1246 -732 -351 -1603 -201 -2179 376 -287 287 -465 635 -539 1055 -21 123
-22 141 -22 1065 0 846 2 952 18 1055 30 200 82 370 174 571 l36 79 26 -20
c14 -10 67 -61 117 -112z"/>
<path d="M1530 2840 l0 -150 150 0 150 0 0 150 0 150 -150 0 -150 0 0 -150z"/>
<path d="M3290 2840 l0 -150 150 0 150 0 0 150 0 150 -150 0 -150 0 0 -150z"/>
<path d="M2427 2695 c-221 -46 -395 -215 -429 -416 -35 -214 118 -443 347
-519 l65 -22 0 -43 c0 -24 -8 -70 -19 -104 -71 -229 -342 -329 -543 -200 -90
58 -156 162 -166 261 l-5 48 -148 0 -149 0 0 -43 c0 -66 35 -190 77 -270 52
-102 182 -230 283 -279 108 -53 187 -72 305 -72 185 1 330 60 467 192 l47 45
66 -61 c75 -69 189 -132 285 -158 86 -23 243 -24 330 0 36 9 99 33 140 54 101
49 231 177 283 279 42 80 77 204 77 270 l0 43 -149 0 -148 0 -5 -48 c-10 -99
-76 -203 -166 -261 -132 -85 -303 -73 -432 29 -72 57 -130 180 -130 276 l0 42
64 22 c181 60 318 216 348 393 36 220 -127 452 -372 528 -85 26 -234 33 -323
14z m231 -300 c115 -34 188 -131 163 -214 -16 -57 -53 -96 -119 -128 -49 -24
-69 -28 -142 -28 -73 0 -93 4 -142 28 -66 32 -103 71 -119 128 -11 34 -10 46
7 86 46 112 208 171 352 128z"/>
</g>
</svg>
